<?xml version="1.0" encoding="utf-8"?>
<!-- Generator: Adobe Illustrator 19.0.0, SVG Export Plug-In . SVG Version: 6.00 Build 0)  -->
<svg version="1.1" id="Capa_1" xmlns="http://www.w3.org/2000/svg" xmlns:xlink="http://www.w3.org/1999/xlink" x="0px" y="0px"
	 viewBox="-233.6 591.9 493.8 98.2" style="enable-background:new -233.6 591.9 493.8 98.2;" xml:space="preserve">
<style type="text/css">
	.st0{fill:#282828;}
</style>
<title>Mesa de trabajo 6 copia 2</title>
<metadata><?xpacket begin="﻿" id="W5M0MpCehiHzreSzNTczkc9d"?>
<x:xmpmeta xmlns:x="adobe:ns:meta/" x:xmptk="Adobe XMP Core 5.6-c067 79.157747, 2015/03/30-23:40:42        ">
   <rdf:RDF xmlns:rdf="http://www.w3.org/1999/02/22-rdf-syntax-ns#">
      <rdf:Description rdf:about=""
            xmlns:dc="http://purl.org/dc/elements/1.1/">
         <dc:title>
            <rdf:Alt>
               <rdf:li xml:lang="x-default">Mesa de trabajo 6 copia 2</rdf:li>
            </rdf:Alt>
         </dc:title>
      </rdf:Description>
   </rdf:RDF>
</x:xmpmeta>
                                                                                                    
                                                                                                    
                                                                                                    
                                                                                                    
                                                                                                    
                                                                                                    
                                                                                                    
                                                                                                    
                                                                                                    
                                                                                                    
                                                                                                    
                                                                                                    
                                                                                                    
                                                                                                    
                                                                                                    
                                                                                                    
                                                                                                    
                                                                                                    
                                                                                                    
                                                                                                    
                           
<?xpacket end="w"?></metadata>
<g id="_Grupo_">
	<g id="_Grupo_2">
		<path id="_Trazado_compuesto_" class="st0" d="M-180.7,631.1v31.4c0,1.4-1.1,2.5-2.5,2.5h-12.4c-1.4,0-2.5-1.1-2.5-2.5v-27.7
			c0-5.6-3.6-7.4-7.8-7.4c-5.2,0-10.3,2.2-10.4,11.3v23.8c0,1.4-1.1,2.5-2.5,2.5h-12.4c-1.4,0-2.5-1.1-2.5-2.5v-45.4
			c0-1.4,1.1-2.5,2.5-2.5h12.3c1.4,0,2.5,1.1,2.5,2.5l0,0c0,0.7,0.5,1.2,1.2,1.2c0.3,0,0.5-0.1,0.7-0.3c4.1-3,9.1-4.6,14.2-4.4
			C-187.1,613.6-180.7,620.1-180.7,631.1z"/>
	</g>
	<g id="_Grupo_3">
		<path id="_Trazado_compuesto_2" class="st0" d="M-163.1,639.8c0-16.6,11.8-26.2,29-26.2s29.1,9.5,29.1,26.2s-11.9,26.2-29.1,26.2
			S-163.1,656.5-163.1,639.8z M-122.2,639.8c0-7.5-4.6-12.7-12-12.7c-7,0-11.5,5.2-11.5,12.7s4.5,12.7,11.5,12.7
			C-126.9,652.5-122.2,647.3-122.2,639.8z"/>
	</g>
	<g id="_Grupo_4">
		<path id="_Trazado_compuesto_3" class="st0" d="M-36.5,643.3h-33.6c0.7,6.3,5.2,9.3,10.8,9.3c3.7,0,6.6-1.2,8.2-4
			c0.5-0.8,1.5-1.3,2.5-1.2l11.1,1.4c1.4,0.2,2.4,1.4,2.2,2.8c0,0.2-0.1,0.5-0.2,0.7c-3.9,8.9-12.8,13.7-23.7,13.7
			c-17.4,0-28.1-9.5-28.1-26.1s11.2-26.3,27.5-26.3c14.7,0,25.8,7.6,25.9,25.7l-0.1,1.6C-34,642.2-35.2,643.3-36.5,643.3z
			 M-65.5,632.3h10.4c1.4,0,2.5-1.1,2.5-2.5c0-0.7-0.3-1.4-0.8-1.8c-1.8-1.6-4.1-2.5-6.5-2.4c-3.2,0-5.8,0.7-7.5,2.4
			c-1,1-1,2.6,0,3.6C-66.7,632-66.1,632.3-65.5,632.3L-65.5,632.3z"/>
	</g>
	<g id="_Grupo_5">
		<path id="_Trazado_compuesto_4" class="st0" d="M113.3,663.6L113.3,663.6c0,0.8-0.7,1.5-1.5,1.5l0,0h-13c-0.7,0-1.3-0.5-1.5-1.2
			l-0.8-4c-3.6,4.4-10.4,6.1-16.2,6.1c-7.7,0-15.9-3.2-15.9-14s8-14.1,18.1-16.6l8.1-2c3.9-1,5.1-2,5.1-3.9c0-3.5-4-4.2-7-4.2
			c-3.9,0-6.8,1.2-8.1,4.8c-0.4,1.2-1.6,1.9-2.8,1.7l-10.2-1.7c-1.4-0.2-2.3-1.5-2.1-2.9c0-0.1,0.1-0.3,0.1-0.4
			c3.1-9,10.8-13,24.3-13c10.2,0,22.3,2.2,22.3,18.6v20C112.2,656.1,112.5,659.9,113.3,663.6z M95.8,647.8c0.5-1.3-0.1-2.8-1.4-3.3
			c-0.5-0.2-1.1-0.2-1.7-0.1l-7.4,2.5c-2.2,0.8-4.4,1.7-4.4,3.9c0,2.4,2.3,3.8,5,3.8C90.3,654.5,94.2,651.8,95.8,647.8z"/>
	</g>
	<g id="_Grupo_6">
		<path id="_Trazado_compuesto_5" class="st0" d="M181.8,614.6c1.4,0,2.5,1.1,2.5,2.5v43.4c0,21.1-11.5,28.2-28.1,28.2
			c-14.2,0-22-5.2-25.9-13.3c-0.6-1.3-0.1-2.8,1.2-3.4c0,0,0.1,0,0.1-0.1l9.9-4c1.2-0.5,2.5,0,3.1,1.1c2.6,4.5,5.7,6.5,10.8,6.5
			c7.9,0,11.3-4.7,11.3-13.6l0,0c0-1.1-0.8-2-1.9-2c-0.4,0-0.8,0.1-1.1,0.3c-3.3,1.9-7,2.9-10.8,2.8c-12.4,0-22.9-9.6-22.9-24.9
			c0-15.3,10.5-24.6,23.1-24.6c5.2,0,9.6,1.6,12.4,4.1c0.5,0.5,1.3,0.4,1.8-0.1c0.2-0.2,0.3-0.5,0.3-0.7l0,0
			c0.1-1.3,1.2-2.3,2.5-2.3L181.8,614.6z M168.8,638.2c0-6-5-10.9-11-10.9s-10.9,5-10.9,11s4.9,10.9,10.9,10.9
			c5.9,0.1,10.8-4.5,10.9-10.4C168.8,638.6,168.8,638.4,168.8,638.2z"/>
	</g>
	<g id="_Grupo_7">
		<path id="_Trazado_compuesto_6" class="st0" d="M202.1,639.8c0-16.6,11.8-26.2,29-26.2s29.1,9.5,29.1,26.2s-12,26.2-29.1,26.2
			S202.1,656.5,202.1,639.8z M242.8,639.8c0-7.5-4.6-12.7-12-12.7c-7,0-11.5,5.2-11.5,12.7s4.5,12.7,11.5,12.7
			C238.3,652.5,242.8,647.3,242.8,639.8L242.8,639.8z"/>
	</g>
	<g id="_Grupo_8">
		<g id="_Grupo_9">
			<g id="_Grupo_10">
				<path id="_Trazado_compuesto_7" class="st0" d="M-1.2,690.1h-12.6c-1.4,0-2.5-1.1-2.5-2.5l0,0v-66.3c0-1.4,1.1-2.5,2.5-2.5l0,0
					h12.6c1.4,0,2.5,1.1,2.5,2.5l0,0v66.3C1.3,688.9,0.3,690.1-1.2,690.1L-1.2,690.1z"/>
			</g>
			<g id="_Grupo_11">
				<path id="_Trazado_compuesto_8" class="st0" d="M2,601.3c0,5.2-4.2,9.5-9.4,9.5s-9.5-4.2-9.5-9.4s4.2-9.5,9.4-9.5h0.1
					C-2.2,591.9,1.8,596.1,2,601.3z"/>
			</g>
		</g>
		<g id="_Grupo_12">
			<g id="_Grupo_13">
				<path id="_Trazado_compuesto_9" class="st0" d="M31.7,591.9h12.6c1.4,0,2.5,1.1,2.5,2.5v66.3c0,1.4-1.1,2.5-2.5,2.5l0,0H31.7
					c-1.4,0-2.5-1.1-2.5-2.5l0,0v-66.3C29.2,593,30.3,591.9,31.7,591.9L31.7,591.9z"/>
			</g>
			<g id="_Grupo_14">
				<path id="_Trazado_compuesto_10" class="st0" d="M28.5,680.7c0-5.2,4.2-9.5,9.4-9.5s9.5,4.2,9.5,9.4s-4.2,9.5-9.4,9.5h-0.1
					C32.8,690,28.5,685.8,28.5,680.7z"/>
			</g>
		</g>
	</g>
</g>
</svg>
