<?xml version="1.0" encoding="utf-8"?>
<!-- Generator: Adobe Illustrator 21.1.0, SVG Export Plug-In . SVG Version: 6.00 Build 0)  -->
<svg version="1.1" id="Capa_1" xmlns="http://www.w3.org/2000/svg" xmlns:xlink="http://www.w3.org/1999/xlink" x="0px" y="0px"
	 viewBox="0 0 494 164" style="enable-background:new 0 0 494 164;" xml:space="preserve">
<style type="text/css">
	.st0{fill:#282828;}
</style>
<g id="_Grupo_">
	<g id="_Grupo_2">
		<path id="_Trazado_compuesto_" class="st0" d="M53.5,72v31.4c0,1.4-1.1,2.5-2.5,2.5H38.6c-1.4,0-2.5-1.1-2.5-2.5V75.7
			c0-5.6-3.6-7.4-7.8-7.4c-5.2,0-10.3,2.2-10.4,11.3v23.8c0,1.4-1.1,2.5-2.5,2.5H3c-1.4,0-2.5-1.1-2.5-2.5V58c0-1.4,1.1-2.5,2.5-2.5
			h12.3c1.4,0,2.5,1.1,2.5,2.5l0,0c0,0.7,0.5,1.2,1.2,1.2c0.3,0,0.5-0.1,0.7-0.3c4.1-3,9.1-4.6,14.2-4.4C47.1,54.5,53.5,61,53.5,72z
			"/>
	</g>
	<g id="_Grupo_3">
		<path id="_Trazado_compuesto_2" class="st0" d="M71.1,80.7c0-16.6,11.8-26.2,29-26.2s29.1,9.5,29.1,26.2s-11.9,26.2-29.1,26.2
			S71.1,97.4,71.1,80.7z M111.9,80.7c0-7.5-4.6-12.7-12-12.7c-7,0-11.5,5.2-11.5,12.7s4.5,12.7,11.5,12.7
			C107.4,93.4,111.9,88.2,111.9,80.7z"/>
	</g>
	<g id="_Grupo_4">
		<path id="_Trazado_compuesto_3" class="st0" d="M197.7,84.2h-33.6c0.7,6.3,5.2,9.3,10.8,9.3c3.7,0,6.6-1.2,8.2-4
			c0.5-0.8,1.5-1.3,2.5-1.2l11.1,1.4c1.4,0.2,2.4,1.4,2.2,2.8c0,0.2-0.1,0.5-0.2,0.7c-3.9,8.9-12.8,13.7-23.7,13.7
			c-17.4,0-28.1-9.5-28.1-26.1s11.2-26.3,27.5-26.3c14.7,0,25.8,7.6,25.9,25.7l-0.1,1.6C200.2,83.1,199,84.2,197.7,84.2z
			 M168.8,73.2h10.4c1.4,0,2.5-1.1,2.5-2.5c0-0.7-0.3-1.4-0.8-1.8c-1.8-1.6-4.1-2.5-6.5-2.4c-3.2,0-5.8,0.7-7.5,2.4
			c-1,1-1,2.6,0,3.6C167.5,72.9,168.1,73.2,168.8,73.2L168.8,73.2z"/>
	</g>
	<g id="_Grupo_5">
		<path id="_Trazado_compuesto_4" class="st0" d="M347.6,104.5L347.6,104.5c0,0.8-0.7,1.5-1.5,1.5l0,0H333c-0.7,0-1.3-0.5-1.5-1.2
			l-0.8-4c-3.6,4.4-10.4,6.1-16.2,6.1c-7.7,0-15.9-3.2-15.9-14s8-14.1,18.1-16.6l8.1-2c3.9-1,5.1-2,5.1-3.9c0-3.5-4-4.2-7-4.2
			c-3.9,0-6.8,1.2-8.1,4.8c-0.4,1.2-1.6,1.9-2.8,1.7L301.8,71c-1.4-0.2-2.3-1.5-2.1-2.9c0-0.1,0.1-0.3,0.1-0.4
			c3.1-9,10.8-13,24.3-13c10.2,0,22.3,2.2,22.3,18.6v20C346.4,97,346.8,100.8,347.6,104.5z M330.1,88.7c0.5-1.3-0.1-2.8-1.4-3.3
			c-0.5-0.2-1.1-0.2-1.7-0.1l-7.4,2.5c-2.2,0.8-4.4,1.7-4.4,3.9c0,2.4,2.3,3.8,5,3.8C324.6,95.4,328.4,92.7,330.1,88.7z"/>
	</g>
	<g id="_Grupo_6">
		<path id="_Trazado_compuesto_5" class="st0" d="M416.1,55.5c1.4,0,2.5,1.1,2.5,2.5v43.4c0,21.1-11.5,28.2-28.1,28.2
			c-14.2,0-22-5.2-25.9-13.3c-0.6-1.3-0.1-2.8,1.2-3.4c0,0,0.1,0,0.1-0.1l9.9-4c1.2-0.5,2.5,0,3.1,1.1c2.6,4.5,5.7,6.5,10.8,6.5
			c7.9,0,11.3-4.7,11.3-13.6l0,0c0-1.1-0.8-2-1.9-2c-0.4,0-0.8,0.1-1.1,0.3c-3.3,1.9-7,2.9-10.8,2.8c-12.4,0-22.9-9.6-22.9-24.9
			s10.5-24.6,23.1-24.6c5.2,0,9.6,1.6,12.4,4.1c0.5,0.5,1.3,0.4,1.8-0.1c0.2-0.2,0.3-0.5,0.3-0.7l0,0c0.1-1.3,1.2-2.3,2.5-2.3
			L416.1,55.5z M402.9,79.1c0-6-5-10.9-11-10.9s-10.9,5-10.9,11s4.9,10.9,10.9,10.9c5.9,0.1,10.8-4.5,10.9-10.4
			C402.9,79.5,402.9,79.3,402.9,79.1z"/>
	</g>
	<g id="_Grupo_7">
		<path id="_Trazado_compuesto_6" class="st0" d="M436.2,80.7c0-16.6,11.8-26.2,29-26.2s29.1,9.5,29.1,26.2s-11.9,26.2-29.1,26.2
			S436.2,97.4,436.2,80.7z M477,80.7c0-7.5-4.6-12.7-12-12.7c-7,0-11.5,5.2-11.5,12.7S458,93.4,465,93.4
			C472.5,93.4,477,88.2,477,80.7L477,80.7z"/>
	</g>
	<g id="_Grupo_8">
		<g id="_Grupo_9">
			<g id="_Grupo_10">
				<path id="_Trazado_compuesto_7" class="st0" d="M233.1,131h-12.6c-1.4,0-2.5-1.1-2.5-2.5l0,0V62.2c0-1.4,1.1-2.5,2.5-2.5l0,0
					h12.6c1.4,0,2.5,1.1,2.5,2.5l0,0v66.3C235.6,129.8,234.5,131,233.1,131L233.1,131z"/>
			</g>
			<g id="_Grupo_11">
				<path id="_Trazado_compuesto_8" class="st0" d="M236.2,42.2c0,5.2-4.2,9.5-9.4,9.5s-9.5-4.2-9.5-9.4s4.2-9.5,9.4-9.5h0.1
					C232,32.8,236.1,37,236.2,42.2z"/>
			</g>
		</g>
		<g id="_Grupo_12">
			<g id="_Grupo_13">
				<path id="_Trazado_compuesto_9" class="st0" d="M265.9,32.8h12.6c1.4,0,2.5,1.1,2.5,2.5v66.3c0,1.4-1.1,2.5-2.5,2.5l0,0h-12.6
					c-1.4,0-2.5-1.1-2.5-2.5l0,0V35.3C263.4,33.9,264.5,32.8,265.9,32.8L265.9,32.8z"/>
			</g>
			<g id="_Grupo_14">
				<path id="_Trazado_compuesto_10" class="st0" d="M262.7,121.6c0-5.2,4.2-9.5,9.4-9.5s9.5,4.2,9.5,9.4c0,5.2-4.2,9.5-9.4,9.5
					h-0.1C267,130.9,262.8,126.7,262.7,121.6z"/>
			</g>
		</g>
	</g>
</g>
</svg>
