<?xml version="1.0" encoding="utf-8"?>
<!-- Generator: Adobe Illustrator 19.0.0, SVG Export Plug-In . SVG Version: 6.00 Build 0)  -->
<svg version="1.1" id="Capa_1" xmlns="http://www.w3.org/2000/svg" xmlns:xlink="http://www.w3.org/1999/xlink" x="0px" y="0px"
	 viewBox="-13 -33.8 163.8 163.8" style="enable-background:new -13 -33.8 163.8 163.8;" xml:space="preserve">
<style type="text/css">
	.st0{fill:#282828;}
	.st1{fill:#F7F9FB;}
</style>
<title>Mesa de trabajo 7 copia 3</title>
<metadata><?xpacket begin="﻿" id="W5M0MpCehiHzreSzNTczkc9d"?>
<x:xmpmeta xmlns:x="adobe:ns:meta/" x:xmptk="Adobe XMP Core 5.6-c067 79.157747, 2015/03/30-23:40:42        ">
   <rdf:RDF xmlns:rdf="http://www.w3.org/1999/02/22-rdf-syntax-ns#">
      <rdf:Description rdf:about=""
            xmlns:dc="http://purl.org/dc/elements/1.1/">
         <dc:title>
            <rdf:Alt>
               <rdf:li xml:lang="x-default">Mesa de trabajo 7 copia 3</rdf:li>
            </rdf:Alt>
         </dc:title>
      </rdf:Description>
   </rdf:RDF>
</x:xmpmeta>
                                                                                                    
                                                                                                    
                                                                                                    
                                                                                                    
                                                                                                    
                                                                                                    
                                                                                                    
                                                                                                    
                                                                                                    
                                                                                                    
                                                                                                    
                                                                                                    
                                                                                                    
                                                                                                    
                                                                                                    
                                                                                                    
                                                                                                    
                                                                                                    
                                                                                                    
                                                                                                    
                           
<?xpacket end="w"?></metadata>
<circle id="_Trazado_" class="st0" cx="68.9" cy="48.1" r="81.9"/>
<g id="_Grupo_">
	<g id="_Grupo_2">
		<path id="_Trazado_compuesto_" class="st1" d="M52.5,97.2H39.9c-1.4,0-2.5-1.1-2.5-2.5V28.3c0-1.4,1.1-2.5,2.5-2.5c0,0,0,0,0,0
			h12.6c1.4,0,2.5,1.1,2.5,2.5v66.3C55,96.1,53.9,97.2,52.5,97.2z"/>
	</g>
	<g id="_Grupo_3">
		<path id="_Trazado_compuesto_2" class="st1" d="M55.7,8.3c0,5.2-4.2,9.5-9.4,9.5c-5.2,0-9.5-4.2-9.5-9.4s4.2-9.5,9.4-9.5
			c0,0,0.1,0,0.1,0C51.4-1,55.6,3.2,55.7,8.3z"/>
	</g>
</g>
<g id="_Grupo_4">
	<g id="_Grupo_5">
		<path id="_Trazado_compuesto_3" class="st1" d="M85.3-1.1h12.6c1.4,0,2.5,1.1,2.5,2.5c0,0,0,0,0,0v66.3c0,1.4-1.1,2.5-2.5,2.5l0,0
			H85.3c-1.4,0-2.5-1.1-2.5-2.5l0,0V1.5C82.8,0.1,83.9-1.1,85.3-1.1C85.3-1.1,85.3-1.1,85.3-1.1z"/>
	</g>
	<g id="_Grupo_6">
		<path id="_Trazado_compuesto_4" class="st1" d="M82.2,87.8c0-5.2,4.2-9.5,9.4-9.5c5.2,0,9.5,4.2,9.5,9.4c0,5.2-4.2,9.5-9.4,9.5
			c0,0-0.1,0-0.1,0C86.4,97.2,82.3,93,82.2,87.8z"/>
	</g>
</g>
</svg>
